<svg width="100%" height="100%" viewBox="0 0 301 300" version="1.1" xmlns="http://www.w3.org/2000/svg" xmlns:xlink="http://www.w3.org/1999/xlink" xml:space="preserve" style="fill-rule:evenodd;clip-rule:evenodd;stroke-linecap:round;stroke-linejoin:round;stroke-miterlimit:1;">
    <g transform="matrix(1,0,0,1,-214,-880)">
        <g id="UXCAD-Main" transform="matrix(1,0,0,1,-34.096083,-251.387233)">
            <g transform="matrix(0,1.332392,-0.80623,0,215.259201,830.546676)">
                <path d="M204.271,-142.794C187.209,-163.558 62.141,-285.612 62.141,-285.612L62.18,-275.248C62.023,-272.035 62.925,-269.368 64.886,-267.238L198.243,-132.823C240.395,-83.04 198.065,-42.67 168.811,-40.863L39.446,-40.863L37.83,1.002L166.767,1.002C207.52,-0.972 235.289,-20.951 250.066,-58.941L250.066,-58.951C261.463,-96.795 255.805,-130.523 232.213,-156.363L206.388,-182.165C200.361,-187.769 199.516,-200.984 206.3,-206.056L239.812,-227.806C249.082,-236.899 254.379,-248.108 255.735,-261.462L255.745,-371.082L145.233,-285.612L37.83,-371.082L38.133,-261.457C38.07,-251.545 41.339,-243.446 47.94,-237.17L157.36,-127.178L176.413,-108.024L176.408,-108.035C181.757,-101.957 183.28,-94.92 180.97,-86.92L180.975,-86.92C177.503,-77.894 170.933,-73.175 161.266,-72.764L161.271,-72.759L40.655,-72.184L39.927,-53.316C47.753,-51.639 161.266,-52.488 161.266,-52.488C175.146,-52.764 185.73,-58.8 193.014,-70.608L193.009,-70.613C200.293,-85.957 198.234,-99.915 186.825,-112.503C186.825,-112.503 175.199,-124.078 169.386,-129.931C147.605,-151.86 56.126,-243.946 56.126,-243.946C50.458,-249.983 47.408,-257.748 46.976,-267.238L46.828,-352.629L148.658,-272.742L249.577,-349.144L249.572,-270.727C249.572,-270.727 248.733,-264.849 247.667,-262.352C246.566,-259.775 245.005,-257.515 242.982,-255.571L178.06,-200.029C185.902,-190.889 229.179,-148.905 229.179,-148.905L229.173,-148.91C243.423,-133.572 245.149,-116.495 245.906,-103.443C248.094,-65.687 221.612,-6.885 161.272,-8.712L50.55,-8.712L50.025,-31.269L170.615,-31.269C204.112,-34.367 250.941,-90.063 204.271,-142.794" style="fill:url(#_Linear1);fill-rule:nonzero;stroke:rgb(24,37,44);stroke-width:1.2px;"/>
            </g>
            <g transform="matrix(0,1.332392,-0.80623,0,215.259201,830.546676)">
                <path d="M170.615,-31.269C204.112,-34.367 250.941,-90.063 204.271,-142.794C187.209,-163.558 62.141,-285.612 62.141,-285.612L68.32,-284.639C68.32,-284.639 193.388,-162.585 210.451,-141.821C249.268,-99 217.777,-38.615 183.13,-31.255L170.615,-31.269" style="fill:url(#_Linear2);fill-rule:nonzero;stroke:rgb(24,37,44);stroke-width:1px;"/>
            </g>
            <g transform="matrix(0,1.332392,-0.80623,0,215.259201,830.546676)">
                <path d="M261.925,-371.082L261.915,-260.489C260.559,-247.135 255.246,-235.916 245.975,-226.822L212.479,-205.083C205.696,-200.012 206.54,-186.796 212.568,-181.192L238.393,-155.39C261.985,-129.55 267.642,-95.822 256.245,-57.979C242.801,-23.414 218.6,-3.748 183.651,1.002L166.767,1.002C207.52,-0.972 235.289,-20.962 250.066,-58.951C261.463,-96.795 255.805,-130.523 232.213,-156.363L206.388,-182.165C200.361,-187.769 199.516,-200.984 206.3,-206.056L239.812,-227.806C249.082,-236.899 254.379,-248.108 255.735,-261.462L255.745,-371.082" style="fill:url(#_Linear3);fill-rule:nonzero;stroke:rgb(24,37,44);stroke-width:1px;"/>
            </g>
        </g>
    </g>
    <defs>
        <linearGradient id="_Linear1" x1="0" y1="0" x2="1" y2="0" gradientUnits="userSpaceOnUse" gradientTransform="matrix(266.108787,-0,0,265.819839,-10.363315,-185.039891)"><stop offset="0" style="stop-color:rgb(61,112,141);stop-opacity:1"/><stop offset="0.5" style="stop-color:rgb(43,78,98);stop-opacity:1"/><stop offset="1" style="stop-color:rgb(27,38,46);stop-opacity:1"/></linearGradient>
        <linearGradient id="_Linear2" x1="0" y1="0" x2="1" y2="0" gradientUnits="userSpaceOnUse" gradientTransform="matrix(166.183775,0,0,166.003328,62.140768,-158.433631)"><stop offset="0" style="stop-color:rgb(24,37,44);stop-opacity:1"/><stop offset="1" style="stop-color:rgb(42,77,97);stop-opacity:1"/></linearGradient>
        <linearGradient id="_Linear3" x1="0" y1="0" x2="1" y2="0" gradientUnits="userSpaceOnUse" gradientTransform="matrix(95.157945,0,0,95.05462,166.767044,-181.618015)"><stop offset="0" style="stop-color:rgb(26,37,44);stop-opacity:1"/><stop offset="1" style="stop-color:rgb(77,97,107);stop-opacity:1"/></linearGradient>
    </defs>
</svg>
